# xmcd
#
# Track frame offsets: 
#        150
#        14277
#        29733
#        43791
#        49132
#        64366
#        76334
#        88916
#        106577
#        113978
#        126428
#        145997
#        157835
#        166640
#        188171
#
# Disc length: 2683 seconds
#
# Revision: 2
# Processed by: cddbd v1.5.2PL0 Copyright (c) Steve Scherf et al.
# Submitted via: ExactAudioCopy v0.99pb5
#
DISCID=c80a790f
DTITLE=Calexico - The Thread That Keeps Us
DYEAR=2018
DGENRE=Alt-Country
TTITLE0=End Of The World With You
TTITLE1=Voices In The Field
TTITLE2=Bridge To Nowhere
TTITLE3=Spinball
TTITLE4=Under The Wheels
TTITLE5=The Town and Miss Lorraine
TTITLE6=Flores y tamales
TTITLE7=Another Space
TTITLE8=Unconditional Waltz
TTITLE9=Girl In The Forest
TTITLE10=Eyes Wide Awake
TTITLE11=Dead In The Water
TTITLE12=Shortboard
TTITLE13=Thrown To The Wild
TTITLE14=Music Box
EXTD=Release Date: 26.01.2018\n\nMARO\n
EXTT0=
EXTT1=
EXTT2=
EXTT3=
EXTT4=
EXTT5=
EXTT6=
EXTT7=
EXTT8=
EXTT9=
EXTT10=
EXTT11=
EXTT12=
EXTT13=
EXTT14=
PLAYORDER=
